<svg xmlns="http://www.w3.org/2000/svg" width="512" height="512" viewBox="0 0 512 512">
  <defs>
    <radialGradient id="oceanTeal" cx="50%" cy="50%" r="55%">
      <stop offset="0%" stop-color="#0F6478"/>
      <stop offset="45%" stop-color="#167D94"/>
      <stop offset="75%" stop-color="#0F5B6D"/>
      <stop offset="100%" stop-color="#083844"/>
    </radialGradient>
    <filter id="shadow" x="-20%" y="-20%" width="140%" height="140%">
      <feDropShadow dx="6" dy="10" stdDeviation="12" flood-color="#042028" flood-opacity="0.45"/>
    </filter>
  </defs>

  <!-- Liquid Background -->
  <rect width="512" height="512" fill="url(#oceanTeal)"/>

  <!-- Concentric Water Ripples -->
  <circle cx="256" cy="256" r="80" fill="none" stroke="#2697AF" stroke-width="16" opacity="0.85"/>
  <circle cx="256" cy="256" r="140" fill="none" stroke="#1F879D" stroke-width="20" opacity="0.75"/>
  <circle cx="256" cy="256" r="195" fill="none" stroke="#187488" stroke-width="22" opacity="0.65"/>
  <circle cx="256" cy="256" r="240" fill="none" stroke="#105F70" stroke-width="18" opacity="0.5"/>

  <!-- Specular top-left light sheen -->
  <path d="M 90,170 C 120,95 200,60 290,60 C 360,60 420,90 460,140" fill="none" stroke="#BBE0E8" stroke-width="8" opacity="0.25"/>

  <!-- Handset Receiver -->
  <g transform="translate(256, 256) scale(4.8) translate(-51, -51)">
    <!-- Handset Body with Shadow -->
    <path filter="url(#shadow)" fill="#FFFFFF" d="M 39.0,28.0
            C 35.0,28.5 31.3,31.0 29.0,35.0
            C 25.0,42.0 26.5,53.0 34.0,64.0
            C 41.5,75.0 52.5,80.0 61.0,79.0
            C 66.0,78.5 70.0,75.0 73.0,70.0
            C 74.5,67.3 74.0,64.0 71.5,62.0
            L 65.0,57.0
            C 62.5,55.0 59.0,55.3 57.0,57.5
            L 54.0,61.0
            C 53.0,62.0 51.5,62.5 50.0,61.5
            C 46.0,59.0 41.0,53.0 38.5,48.0
            C 37.5,46.0 38.0,44.5 39.0,43.5
            L 42.5,40.5
            C 44.7,38.5 45.0,35.0 43.0,32.5
            L 38.0,26.0
            C 36.5,24.0 33.5,23.3 31.0,24.5
            Z"/>
  </g>
</svg>
